<svg xmlns="http://www.w3.org/2000/svg" viewBox="0 0 240 136">
  <defs>
    <clipPath id="a">
      <path d="M0 0h240v136H0z"/>
    </clipPath>
  </defs>
  <g data-name="Artboard – 15">
    <g data-name="Group 62" clip-path="url(#a)">
      <g data-name="Group 59" opacity=".498" fill="#fff">
        <g data-name="Group 26">
          <path data-name="Path 19" d="M143.87 20.951a151.384 151.384 0 00-24.417-1.017c-4.162.164-13.15 1.062-14.033 1.138-.911.17-.535-2.461.076-3.037.34-.079 8.918-1 11.706-1.142a151.275 151.275 0 0125.173.736c4.21.484 17.259 3.068 18.336 3.38.639.185.874.091 1.012-.6.691-3.476 1.442-6.941 2.166-10.411.288-1.132 1.721-1.03 3.091-.695 1.283.535 2.9.609 2.386 2.405-.389 2.265-.882 4.512-1.352 6.763-1.221 5.843-2.892 12.864-4.122 18.7-.431 1.2-1.217 2.636-4.2 1.936a1.486 1.486 0 01-1.389-1.529 4.247 4.247 0 01.077-1.315c.8-3.763 1.571-7.531 2.39-11.289.138-.632-.019-.848-.638-.982-1.746-.379-13.516-2.705-16.262-3.041z"/>
          <path data-name="Path 20" d="M92.247 36.73c.247 1.112-.4 2.122-1.978 2.521a2.563 2.563 0 01-3.136-1.209 6.07 6.07 0 01-.759-1.979l-4.955-23.656a4.67 4.67 0 01-.188-1.826c.167-1.437.694-1.9 2.221-2.286 1.488-.317 2.8-.275 3.236 1.2.123.42 1.881 8.819 2.29 10.88.125.629.289.823.986.637a139.011 139.011 0 0115.592-2.982c.265-.038-.139 2.37-.054 3.019-2.822.493-5.985.957-8.791 1.547-2.085.438-4.159.921-6.23 1.421-.585.141-.658.376-.541.914.658 3.041 2.072 10.39 2.307 11.799z"/>
        </g>
        <path data-name="Path 21" d="M74.936 13.953a4.726 4.726 0 01.383-1.8 1.892 1.892 0 011.474-1.195c.459-.074.911-.194 1.367-.285a1.494 1.494 0 011.847.8 4.729 4.729 0 01.548 1.59l4.822 23.026a4.785 4.785 0 01.119 1.24 1.564 1.564 0 01-1.491 1.754c-.215.047-.431.1-.647.139-1.785.354-2.678-.088-3.44-1.774a18.926 18.926 0 01-.987-3.988q-1.925-9.1-3.818-18.2c-.09-.429-.12-.871-.177-1.307z"/>
        <path data-name="Path 22" d="M165.424 36.332c.554-2.709 1.471-7.7 2.035-10.409.909-4.361 1.833-8.718 2.745-13.078a4.128 4.128 0 01.5-1.372 1.484 1.484 0 011.846-.8q.54.106 1.078.225a2.262 2.262 0 012.024 2.093 4.92 4.92 0 01.01 1.9q-1.389 6.647-2.8 13.289c-.551 2.517-2.114 9.4-2.5 10.284-.406.893-1.514 1.119-2.69.9-.4-.12-.662-.148-1.226-.328-.817-.267-1.542-.767-1.022-2.704z"/>
        <path data-name="Path 23" d="M174.326 26.38q.851-4.174 1.7-8.349a21.207 21.207 0 01.532-2.287 1.756 1.756 0 012.393-1.376c2.492.509 3.354 1.678 2.846 4.214-1.136 5.668-2.359 11.318-3.553 16.974a4.874 4.874 0 01-.607 1.492 2.4 2.4 0 01-3.057 1.341c-.168-.035-.338-.062-.505-.1-1.513-.321-2.037-1.063-1.737-2.626.412-2.14.885-4.269 1.335-6.4.069-.31.577-2.488.653-2.883z"/>
        <path data-name="Path 24" d="M77.949 33.654a13.91 13.91 0 01.457 2.522c.025 1.063-.261 1.979-1.629 2.082a3.107 3.107 0 00-.358.076c-2.032.4-3.055-.138-3.744-2.137a32.21 32.21 0 01-1.071-4.862c-.078-.215-1.588-7.425-2.173-10.153a95.873 95.873 0 01-.529-2.591 5.128 5.128 0 01.043-2.116 2.217 2.217 0 012-1.945c.291-.034.576-.114.864-.172a1.681 1.681 0 012.293 1.308c.362 1.165.572 2.378.822 3.576.435 2.084 2.496 11.902 3.025 14.412z"/>
      </g>
      <g data-name="Group 60">
        <g data-name="Group 24">
          <g fill="#fff">
            <path data-name="Path 1" d="M161.939 103.152a3.131 3.131 0 10-3.2-3.13 3.177 3.177 0 003.2 3.13m-2.574-3.2a2.584 2.584 0 012.574-2.643 2.644 2.644 0 11-2.574 2.643m1.878.278h.626l.974 1.6h.626l-1.043-1.6c.556-.07.974-.348.974-.974q0-1.043-1.252-1.043h-1.391v3.548h.556v-1.53zm0-.487v-1.112h.765c.417 0 .765.07.765.556 0 .556-.417.626-.9.626h-.634z" fill-rule="evenodd"/>
            <path data-name="Path 2" d="M54.259 127.707v-25.32H65.25v18.016c-.348 7.652-8.139 7.3-8.139 7.3z"/>
            <path data-name="Path 3" d="M51.894 127.707v-25.32H40.903v18.016c.348 7.652 8.139 7.3 8.139 7.3z"/>
            <path data-name="Rectangle 1" d="M67.545 102.387h10.991v25.32H67.545z"/>
            <path data-name="Path 4" d="M146.149 107.743a5.217 5.217 0 115.217 5.217 5.255 5.255 0 01-5.217-5.217"/>
            <path data-name="Rectangle 2" d="M134.323 102.387h10.921v25.32h-10.921z"/>
            <path data-name="Path 5" d="M94.609 127.707v-22.329h-3.9l14.538-13.077v10.365h4.382v2.713h-4.382v22.328z"/>
            <path data-name="Path 6" d="M80.831 102.388v25.32h11.2v-17.947c-.348-7.582-8.208-7.373-8.208-7.373z"/>
            <path data-name="Path 7" d="M119.507 127.847a12.922 12.922 0 01-.282-25.807v22.816a17.764 17.764 0 0013.425-5.287v3.13c-1.878 2.226-6.33 5.426-13.147 5.147"/>
            <path data-name="Path 8" d="M121.037 102.04v13.077h11.686c.278-6.4-2.852-12.869-11.686-13.077"/>
            <path data-name="Path 9" d="M21.701 106.77h3.061V92.301h13.7v35.406h-13.7v-17.459h-3.061v17.46h-13.7V92.301h13.7z"/>
          </g>
          <g data-name="Group 21">
            <path data-name="Path 39" d="M176.162 127.531h7.482v-10.176h8.6v-5.836h-8.6v-4.714h9.951v-6.21h-17.433zm22.97 0h7.482v-26.936h-7.482zm19.828 0h7.482v-20.726h6.809v-6.21h-21.1v6.21h6.811z" fill="#00658a"/>
          </g>
        </g>
      </g>
      <g data-name="Group 61">
        <path data-name="Path 36" d="M132.28 25.532a5.74 5.74 0 102.394 7.757 5.738 5.738 0 00-2.394-7.757zm-31.309 45.979a2.842 2.842 0 105 2.7l10.074-18.692.3.159.977.516a2.911 2.911 0 00.194.3l5.748 7.629 1.288 9.136a2.843 2.843 0 002.81 2.445 2.943 2.943 0 00.4-.028 2.843 2.843 0 002.417-3.211l-1.39-9.863a2.845 2.845 0 00-.544-1.313l-4.729-6.278.866-1.638.472-.893a2.366 2.366 0 002.059 1.211 2.3 2.3 0 00.279-.016l8.348-.977a2.368 2.368 0 001.816-3.461l-4.638-8.749a2.356 2.356 0 00-1-.992l.026-.048-9.147-4.834-.508-9.217 8.128-6.663a2.368 2.368 0 00-3-3.663l-9.058 7.425a2.368 2.368 0 00-.863 1.962l.826 14.971-.87 1.645-5.348 10.12-.882 1.665zm25.745-22.552l1.193-2.257 1.373-2.6 2.273 4.288z" fill="#fff"/>
      </g>
    </g>
  </g>
</svg>
